<?xml version="1.0" standalone="no"?>
<!DOCTYPE svg PUBLIC "-//W3C//DTD SVG 20010904//EN"
 "http://www.w3.org/TR/2001/REC-SVG-20010904/DTD/svg10.dtd">
<svg version="1.0" xmlns="http://www.w3.org/2000/svg"
 width="400.000000pt" height="400.000000pt" viewBox="0 0 400.000000 400.000000"
 preserveAspectRatio="xMidYMid meet">
<metadata>
Created by potrace 1.14, written by Peter Selinger 2001-2017
</metadata>
<g transform="translate(0.000000,400.000000) scale(0.100000,-0.100000)"
fill="#000000" stroke="none">
<path d="M475 2892 c-29 -6 -61 -30 -81 -60 -16 -24 -18 -56 -20 -297 -1 -148
-2 -275 -3 -281 -2 -21 -73 -82 -129 -112 -49 -26 -109 -45 -147 -47 -6 0 -10
-37 -10 -90 l0 -89 42 -8 c83 -14 206 -88 236 -142 7 -14 11 -108 12 -291 1
-290 2 -294 56 -339 l31 -26 383 0 383 0 37 97 c20 54 40 107 45 118 5 11 25
61 44 110 19 50 87 227 151 395 65 168 124 321 131 340 7 19 71 188 143 374
72 187 131 343 131 346 0 7 -1402 9 -1435 2z m503 -899 l2 -443 -108 0 -108 0
1 443 c1 243 3 442 4 442 0 1 47 1 104 0 l102 0 3 -442z"/>
<path d="M2080 2890 c-4 -3 -65 -156 -134 -340 -70 -184 -131 -344 -135 -355
-5 -11 -30 -76 -56 -145 -25 -69 -53 -141 -60 -160 -8 -19 -40 -102 -71 -185
-31 -82 -67 -179 -81 -215 -13 -36 -33 -87 -43 -115 -10 -27 -37 -97 -59 -155
-23 -58 -41 -108 -41 -112 0 -5 477 -8 1060 -8 1161 0 1099 -3 1145 58 19 25
20 47 25 324 l5 297 30 31 c38 40 114 76 193 91 l62 13 0 87 0 87 -51 7 c-67
9 -183 68 -214 109 l-24 32 -1 280 c-1 257 -3 283 -20 312 -42 68 -7 65 -803
66 -396 1 -723 -1 -727 -4z m752 -470 c138 -38 252 -145 306 -290 17 -46 24
-187 11 -236 -70 -273 -371 -420 -617 -302 -228 108 -320 366 -213 593 53 112
143 189 270 229 79 25 163 27 243 6z"/>
</g>
</svg>
